<svg width="10" height="10" viewBox="0 0 10 10" fill="none" xmlns="http://www.w3.org/2000/svg">
<path d="M9.54351 0.456627C8.93113 -0.15574 8.38655 0.0248584 8.38655 0.0248584L3.5859 4.82155L2.77848 7.22156L5.17741 6.41359L9.97529 1.61357C9.97529 1.61357 10.1553 1.06899 9.54351 0.456627ZM5.33745 5.89069L5.07572 6.15187L4.25718 6.42971C4.19939 6.29634 4.12715 6.16465 3.98045 6.0185C3.83374 5.8718 3.7026 5.79956 3.56923 5.74177L3.84708 4.92324L4.10881 4.66207C4.10881 4.66207 4.54003 4.61261 4.96291 5.03605C5.38635 5.45892 5.33745 5.89069 5.33745 5.89069ZM8.33543 8.88862H1.11139V1.66469H3.88987L5.00126 0.553317H1.11139C0.500126 0.553317 0 1.05344 0 1.66469V8.88862C0 9.49988 0.500126 10 1.11139 10H8.33543C8.94669 10 9.44682 9.49988 9.44682 8.88862V4.99881L8.33543 6.11019V8.88862Z" fill="black"/>
</svg>
