<svg width="13" height="13" viewBox="0 0 13 13" fill="none" xmlns="http://www.w3.org/2000/svg">
<path d="M6.49414 12.3223C5.66602 12.3223 4.88672 12.1641 4.15625 11.8477C3.42578 11.5352 2.78125 11.0996 2.22266 10.541C1.66797 9.98242 1.23242 9.33789 0.916016 8.60742C0.599609 7.87695 0.441406 7.09766 0.441406 6.26953C0.441406 5.44141 0.599609 4.66211 0.916016 3.93164C1.23242 3.20117 1.66797 2.55859 2.22266 2.00391C2.78125 1.44531 3.42383 1.00781 4.15039 0.691406C4.88086 0.375 5.66016 0.216797 6.48828 0.216797C7.32031 0.216797 8.10156 0.375 8.83203 0.691406C9.5625 1.00781 10.207 1.44531 10.7656 2.00391C11.3242 2.55859 11.7617 3.20117 12.0781 3.93164C12.3945 4.66211 12.5527 5.44141 12.5527 6.26953C12.5527 7.09766 12.3945 7.87695 12.0781 8.60742C11.7617 9.33789 11.3242 9.98242 10.7656 10.541C10.207 11.0996 9.5625 11.5352 8.83203 11.8477C8.10156 12.1641 7.32227 12.3223 6.49414 12.3223ZM4.80078 9.36914L6.49414 8.12695L8.19336 9.36914C8.31445 9.45898 8.42969 9.49414 8.53906 9.47461C8.65234 9.45508 8.73633 9.39648 8.79102 9.29883C8.8457 9.19727 8.84766 9.07422 8.79688 8.92969L8.12891 6.93164L9.83984 5.70703C9.95312 5.63281 10.0176 5.53906 10.0332 5.42578C10.0527 5.30859 10.0254 5.20508 9.95117 5.11523C9.88086 5.02539 9.76758 4.98242 9.61133 4.98633L7.50781 5.00977L6.86328 2.99414C6.81641 2.85352 6.74219 2.75977 6.64062 2.71289C6.54297 2.66602 6.44336 2.66602 6.3418 2.71289C6.24414 2.75977 6.17188 2.85352 6.125 2.99414L5.48633 5.00977L3.38281 4.98633C3.22656 4.98242 3.11133 5.02539 3.03711 5.11523C2.9668 5.20117 2.93945 5.30273 2.95508 5.41992C2.97461 5.5332 3.03906 5.63086 3.14844 5.71289L4.86523 6.93164L4.19141 8.92969C4.14453 9.07422 4.14844 9.19727 4.20312 9.29883C4.25781 9.39648 4.33984 9.45508 4.44922 9.47461C4.5625 9.49414 4.67969 9.45898 4.80078 9.36914Z" fill="#17A254"/>
</svg>
