<svg width="12" height="14" viewBox="0 0 12 14" fill="none" xmlns="http://www.w3.org/2000/svg">
<path d="M4.20703 12.0234C4.33203 12.0234 4.43359 11.9863 4.51172 11.9121C4.58984 11.8379 4.62695 11.7402 4.62305 11.6191L4.43555 5.24414C4.43555 5.12305 4.39453 5.02734 4.3125 4.95703C4.23438 4.88281 4.13477 4.8457 4.01367 4.8457C3.88477 4.8457 3.78125 4.88281 3.70312 4.95703C3.62891 5.03125 3.59375 5.12891 3.59766 5.25L3.77344 11.6191C3.78125 11.7441 3.82227 11.8438 3.89648 11.918C3.97461 11.9883 4.07812 12.0234 4.20703 12.0234ZM6 12.0234C6.12891 12.0234 6.23242 11.9883 6.31055 11.918C6.39258 11.8438 6.43359 11.7461 6.43359 11.625V5.25C6.43359 5.12891 6.39258 5.03125 6.31055 4.95703C6.23242 4.88281 6.12891 4.8457 6 4.8457C5.875 4.8457 5.77148 4.88281 5.68945 4.95703C5.61133 5.03125 5.57227 5.12891 5.57227 5.25V11.625C5.57227 11.7461 5.61133 11.8438 5.68945 11.918C5.77148 11.9883 5.875 12.0234 6 12.0234ZM7.79883 12.0234C7.92773 12.0234 8.0293 11.9883 8.10352 11.918C8.18164 11.8477 8.22266 11.748 8.22656 11.6191L8.40234 5.25C8.40625 5.12891 8.36914 5.03125 8.29102 4.95703C8.2168 4.88281 8.11523 4.8457 7.98633 4.8457C7.86914 4.8457 7.76953 4.88281 7.6875 4.95703C7.60938 5.02734 7.56836 5.125 7.56445 5.25L7.38281 11.6191C7.37891 11.7441 7.41406 11.8438 7.48828 11.918C7.56641 11.9883 7.66992 12.0234 7.79883 12.0234ZM3.33984 3.31055V2.04492C3.33984 1.5957 3.47461 1.24609 3.74414 0.996094C4.01758 0.742188 4.39648 0.615234 4.88086 0.615234H7.10742C7.5918 0.615234 7.9707 0.742188 8.24414 0.996094C8.51758 1.24609 8.6543 1.5957 8.6543 2.04492V3.31055H7.57031V2.09766C7.57031 1.94922 7.52148 1.83008 7.42383 1.74023C7.32617 1.64648 7.19531 1.59961 7.03125 1.59961H4.95703C4.79688 1.59961 4.66797 1.64648 4.57031 1.74023C4.47266 1.83008 4.42383 1.94922 4.42383 2.09766V3.31055H3.33984ZM0.744141 3.95508C0.599609 3.95508 0.476562 3.9043 0.375 3.80273C0.273438 3.70117 0.222656 3.57813 0.222656 3.43359C0.222656 3.29297 0.273438 3.17383 0.375 3.07617C0.476562 2.97461 0.599609 2.92383 0.744141 2.92383H11.2617C11.4062 2.92383 11.5273 2.97266 11.625 3.07031C11.7266 3.16797 11.7773 3.28906 11.7773 3.43359C11.7773 3.57813 11.7266 3.70117 11.625 3.80273C11.5273 3.9043 11.4062 3.95508 11.2617 3.95508H0.744141ZM3.31055 13.8398C2.85742 13.8398 2.49414 13.7129 2.2207 13.459C1.95117 13.2051 1.80664 12.8516 1.78711 12.3984L1.37695 3.83203H10.623L10.2188 12.3926C10.1992 12.8457 10.0527 13.1992 9.7793 13.4531C9.50586 13.7109 9.14453 13.8398 8.69531 13.8398H3.31055Z" fill="#667085"/>
</svg>
