<svg width="18" height="18" viewBox="0 0 18 18" fill="none" xmlns="http://www.w3.org/2000/svg">
<rect width="18" height="18" rx="9" fill="#FD0200"/>
<path d="M4.65022 5.66261L5.66261 4.65022C5.86291 4.44993 6.19066 4.44993 6.39277 4.65022L9.00023 7.25768L11.6077 4.65022C11.808 4.44993 12.1357 4.44993 12.336 4.65022L13.3484 5.66261C13.5505 5.86291 13.5505 6.19066 13.3484 6.39277L10.741 9.00023L13.3484 11.6077C13.5505 11.808 13.5505 12.1357 13.3484 12.336L12.336 13.3484C12.1357 13.5505 11.808 13.5505 11.6077 13.3484L9.00023 10.741L6.39277 13.3484C6.19066 13.5505 5.86291 13.5505 5.66261 13.3484L4.65022 12.336C4.44993 12.1357 4.44993 11.808 4.65022 11.6077L7.25768 9.00023L4.65022 6.39277C4.44993 6.19066 4.44993 5.86291 4.65022 5.66261Z" fill="white"/>
</svg>
