<svg width="17" height="16" viewBox="0 0 17 16" fill="none" xmlns="http://www.w3.org/2000/svg">
<path d="M4.21429 14.3448C5.75371 14.3448 7.05886 13.9263 7.92857 13.2351C7.92857 13.4133 7.92857 13.5976 7.92857 13.7931C7.92857 15.0512 6.332 16 4.21429 16C2.09657 16 0.5 15.0512 0.5 13.7931C0.5 13.6092 0.5 13.4214 0.5 13.2351C1.36971 13.9263 2.67486 14.3448 4.21429 14.3448Z" fill="#222222"/>
<path d="M7.92857 8.27586C7.92857 9.53398 6.332 10.4828 4.21429 10.4828C2.09657 10.4828 0.5 9.53398 0.5 8.27586C0.5 7.01775 2.09657 6.06897 4.21429 6.06897C6.332 6.06897 7.92857 7.01775 7.92857 8.27586Z" fill="#222222"/>
<path d="M4.21429 11.5862C5.75371 11.5862 7.05886 11.1676 7.92857 10.4765C7.92857 10.6547 7.92857 10.839 7.92857 11.0345C7.92857 12.2926 6.332 13.2414 4.21429 13.2414C2.09657 13.2414 0.5 12.2926 0.5 11.0345C0.5 10.8506 0.5 10.6628 0.5 10.4765C1.36971 11.1676 2.67486 11.5862 4.21429 11.5862Z" fill="#222222"/>
<path d="M12.7856 14.3448C14.325 14.3448 15.6301 13.9263 16.4999 13.2351C16.4999 13.4133 16.4999 13.5976 16.4999 13.7931C16.4999 15.0512 14.9033 16 12.7856 16C10.6679 16 9.07129 15.0512 9.07129 13.7931C9.07129 13.6092 9.07129 13.4214 9.07129 13.2351C9.941 13.9263 11.2461 14.3448 12.7856 14.3448Z" fill="#222222"/>
<path d="M16.4999 8.27586C16.4999 9.53398 14.9033 10.4828 12.7856 10.4828C10.6679 10.4828 9.07129 9.53398 9.07129 8.27586C9.07129 7.01775 10.6679 6.06897 12.7856 6.06897C14.9033 6.06897 16.4999 7.01775 16.4999 8.27586Z" fill="#222222"/>
<path d="M12.7856 11.5862C14.325 11.5862 15.6301 11.1676 16.4999 10.4765C16.4999 10.6547 16.4999 10.839 16.4999 11.0344C16.4999 12.2926 14.9033 13.2413 12.7856 13.2413C10.6679 13.2413 9.07129 12.2926 9.07129 11.0344C9.07129 10.8505 9.07129 10.6628 9.07129 10.4765C9.941 11.1676 11.2461 11.5862 12.7856 11.5862Z" fill="#222222"/>
<path d="M11.1897 3.70041L8.90402 5.90731C8.68097 6.12266 8.31906 6.12266 8.09602 5.90731L5.8103 3.70041C5.64687 3.54262 5.59773 3.30556 5.68649 3.09903C5.77449 2.89306 5.98325 2.75862 6.2143 2.75862H7.35716V1.10345C7.35716 0.493977 7.86878 0 8.50002 0C9.13125 0 9.64287 0.493977 9.64287 1.10345V2.75862H10.7857C11.0168 2.75862 11.2255 2.89306 11.3135 3.09922C11.4023 3.30556 11.3532 3.54262 11.1897 3.70041Z" fill="#222222"/>
</svg>
