<svg width="14" height="20" viewBox="0 0 14 20" fill="none" xmlns="http://www.w3.org/2000/svg">
<path fill-rule="evenodd" clip-rule="evenodd" d="M1.35561 7.13404C1.01005 7.09192 0.742361 6.79065 0.742361 6.42513C0.742361 6.03105 1.05385 5.71123 1.43765 5.71123H12.5623C12.9461 5.71123 13.2576 6.03105 13.2576 6.42513C13.2576 6.79065 12.9899 7.09192 12.6444 7.13404C12.7111 7.21613 12.7765 7.3018 12.8412 7.39318C13.4377 8.23559 13.9529 9.50705 13.9529 11.4225C13.9529 13.1858 14.1142 14.9741 13.8396 16.3876C13.6213 17.5092 13.1436 18.4166 12.2356 18.9991C11.2371 19.6395 9.12204 20 7 20C4.87797 20 2.76288 19.6395 1.76444 18.9991C0.85639 18.4166 0.378719 17.5092 0.160397 16.3876C-0.114244 14.9741 0.047068 13.1858 0.047068 11.4225C0.047068 9.50705 0.56228 8.23559 1.15884 7.39318C1.2235 7.3018 1.28886 7.21613 1.35561 7.13404ZM7.69529 10.0211V10.0139C7.69529 9.61985 7.3838 9.30002 7 9.30002C6.61967 9.30002 6.30957 9.61485 6.30471 10.0046C5.86945 10.1153 5.50025 10.3473 5.25134 10.6914C5.04623 10.9748 4.91412 11.3389 4.91412 11.8037C4.91412 12.7239 5.53363 13.1908 6.39371 13.4485C6.7052 13.5413 7.04867 13.6099 7.34765 13.7127C7.44012 13.7448 7.52704 13.779 7.60282 13.824C7.64941 13.8519 7.69529 13.8811 7.69529 13.9454C7.69529 14.2295 7.48531 14.3387 7.25448 14.3709C6.83591 14.4287 6.33322 14.2995 5.99809 14.0675C5.68034 13.8469 5.24786 13.9333 5.03302 14.2595C4.81817 14.5865 4.9023 15.0305 5.22074 15.2511C5.52389 15.461 5.90491 15.6209 6.30471 15.7137V15.7251C6.30471 16.1192 6.6162 16.4391 7 16.4391C7.38033 16.4391 7.68973 16.1249 7.69529 15.7359C7.76899 15.718 7.84131 15.6966 7.91014 15.6716C8.59292 15.4239 9.08588 14.8835 9.08588 13.9454C9.08588 13.0252 8.46637 12.5583 7.60629 12.3006C7.2948 12.207 6.95133 12.1385 6.65235 12.0357C6.55988 12.0043 6.47296 11.9693 6.39718 11.925C6.35059 11.8972 6.30471 11.8672 6.30471 11.8037C6.30471 11.516 6.51538 11.4025 6.7483 11.3689C7.16339 11.3097 7.66053 11.4367 7.99219 11.6752C8.30715 11.9008 8.74102 11.8215 8.96073 11.4981C9.18044 11.1754 9.10326 10.73 8.78899 10.5044C8.48306 10.2845 8.09787 10.1174 7.69529 10.0211ZM1.72829 4.28342C1.27217 3.32608 0.812591 2.36088 0.617214 1.94824C0.414883 1.5249 0.536555 1.01374 0.905755 0.733179C0.928005 0.716045 0.951649 0.700339 0.975289 0.686775C1.36604 0.458326 2.35266 0 4.21883 0C5.03162 0 5.71093 0.284847 6.3798 0.645369C7.14323 1.05658 7.8865 1.60057 8.97116 1.60057C10.0704 1.60057 11.3317 1.21935 12.0374 0.973764C12.4017 0.845975 12.8057 0.955917 13.0609 1.25219C13.316 1.54917 13.3731 1.97394 13.2041 2.32947L12.2724 4.28342H1.72829Z" fill="#222222"/>
</svg>
