<svg width="11" height="14" viewBox="0 0 11 14" fill="none" xmlns="http://www.w3.org/2000/svg">
<path d="M5.21875 13.1582C4.27344 13.1582 3.44922 12.9883 2.74609 12.6484C2.04297 12.3125 1.49609 11.8398 1.10547 11.2305C0.714844 10.6172 0.519531 9.90234 0.519531 9.08594C0.519531 8.65625 0.552734 8.27734 0.619141 7.94922C0.689453 7.61719 0.775391 7.32227 0.876953 7.06445C0.978516 6.80273 1.08008 6.55664 1.18164 6.32617C1.28711 6.0957 1.37305 5.86523 1.43945 5.63477C1.50586 5.4043 1.53906 5.15625 1.53906 4.89062C1.53906 4.74609 1.53125 4.60156 1.51562 4.45703C1.50391 4.30859 1.49805 4.18945 1.49805 4.09961C1.49805 3.94727 1.54102 3.82617 1.62695 3.73633C1.71289 3.64648 1.82422 3.60156 1.96094 3.60156C2.16016 3.60156 2.35938 3.6582 2.55859 3.77148C2.76172 3.88477 2.94727 4.04883 3.11523 4.26367C3.2832 4.47852 3.41992 4.73828 3.52539 5.04297L3.25586 5.10742C3.33398 4.9668 3.38281 4.84375 3.40234 4.73828C3.42188 4.62891 3.43164 4.51758 3.43164 4.4043C3.43164 4.0293 3.36328 3.67383 3.22656 3.33789C3.09375 2.99805 2.92188 2.67383 2.71094 2.36523C2.5 2.05273 2.27344 1.75195 2.03125 1.46289C1.96484 1.38867 1.91406 1.31055 1.87891 1.22852C1.84375 1.14258 1.82617 1.05664 1.82617 0.970703C1.82617 0.755859 1.91602 0.59375 2.0957 0.484375C2.27539 0.375 2.51758 0.320312 2.82227 0.320312C3.3418 0.320312 3.89062 0.382813 4.46875 0.507812C5.04688 0.632812 5.62109 0.826172 6.19141 1.08789C6.76172 1.34961 7.30273 1.68359 7.81445 2.08984C8.33008 2.49219 8.78711 2.97266 9.18555 3.53125C9.58398 4.08594 9.89844 4.7207 10.1289 5.43555C10.3594 6.15039 10.4746 6.94922 10.4746 7.83203C10.4746 8.62891 10.3496 9.35547 10.0996 10.0117C9.84961 10.6641 9.49219 11.2246 9.02734 11.6934C8.5625 12.1621 8.00781 12.5234 7.36328 12.7773C6.72266 13.0312 6.00781 13.1582 5.21875 13.1582ZM5.35938 11.3535C5.8125 11.3535 6.19141 11.2559 6.49609 11.0605C6.80469 10.8613 7.03516 10.5977 7.1875 10.2695C7.34375 9.94141 7.42188 9.58398 7.42188 9.19727C7.42188 8.80273 7.34766 8.41211 7.19922 8.02539C7.05078 7.63867 6.83203 7.28516 6.54297 6.96484C6.25781 6.64062 5.9043 6.38086 5.48242 6.18555C5.44336 6.17383 5.41016 6.17773 5.38281 6.19727C5.35938 6.21289 5.35156 6.24023 5.35938 6.2793C5.41406 6.73633 5.41406 7.16211 5.35938 7.55664C5.30469 7.95117 5.20312 8.26367 5.05469 8.49414C4.98047 8.31836 4.89844 8.1582 4.80859 8.01367C4.72266 7.86523 4.61328 7.73047 4.48047 7.60938C4.45312 7.58594 4.42578 7.58008 4.39844 7.5918C4.37109 7.60352 4.35547 7.62695 4.35156 7.66211C4.32812 7.83789 4.27344 7.99805 4.1875 8.14258C4.10547 8.2832 4.01367 8.42773 3.91211 8.57617C3.81445 8.7207 3.72852 8.88477 3.6543 9.06836C3.58008 9.24805 3.54297 9.4668 3.54297 9.72461C3.54297 10.209 3.70898 10.6016 4.04102 10.9023C4.37305 11.2031 4.8125 11.3535 5.35938 11.3535Z" fill="#F04438"/>
</svg>
