<svg width="15" height="15" viewBox="0 0 15 15" fill="none" xmlns="http://www.w3.org/2000/svg">
<path d="M7.28516 14.126C6.31901 14.126 5.40983 13.9414 4.55762 13.5723C3.7054 13.2077 2.95345 12.6995 2.30176 12.0479C1.65462 11.3962 1.14648 10.6442 0.777344 9.79199C0.408203 8.93978 0.223633 8.0306 0.223633 7.06445C0.223633 6.09831 0.408203 5.18913 0.777344 4.33691C1.14648 3.4847 1.65462 2.73503 2.30176 2.08789C2.95345 1.4362 3.70312 0.925781 4.55078 0.556641C5.40299 0.1875 6.31217 0.00292969 7.27832 0.00292969C8.24902 0.00292969 9.16048 0.1875 10.0127 0.556641C10.8649 0.925781 11.6169 1.4362 12.2686 2.08789C12.9202 2.73503 13.4307 3.4847 13.7998 4.33691C14.1689 5.18913 14.3535 6.09831 14.3535 7.06445C14.3535 8.0306 14.1689 8.93978 13.7998 9.79199C13.4307 10.6442 12.9202 11.3962 12.2686 12.0479C11.6169 12.6995 10.8649 13.2077 10.0127 13.5723C9.16048 13.9414 8.2513 14.126 7.28516 14.126ZM6.03418 10.9951H8.91211C9.07617 10.9951 9.21289 10.945 9.32227 10.8447C9.43164 10.7399 9.48633 10.6055 9.48633 10.4414C9.48633 10.2865 9.43164 10.1566 9.32227 10.0518C9.21289 9.94238 9.07617 9.8877 8.91211 9.8877H8.12598V6.53809C8.12598 6.32389 8.07357 6.15072 7.96875 6.01855C7.86393 5.88639 7.71126 5.82031 7.51074 5.82031H6.15723C5.99772 5.82031 5.86328 5.875 5.75391 5.98438C5.64453 6.09375 5.58984 6.22363 5.58984 6.37402C5.58984 6.53809 5.64453 6.67253 5.75391 6.77734C5.86328 6.8776 5.99772 6.92773 6.15723 6.92773H6.875V9.8877H6.03418C5.87467 9.8877 5.73796 9.94238 5.62402 10.0518C5.51465 10.1566 5.45996 10.2865 5.45996 10.4414C5.45996 10.6055 5.51465 10.7399 5.62402 10.8447C5.73796 10.945 5.87467 10.9951 6.03418 10.9951ZM7.24414 4.71973C7.51758 4.71973 7.74772 4.62402 7.93457 4.43262C8.12142 4.24121 8.21484 4.01335 8.21484 3.74902C8.21484 3.47103 8.12142 3.23861 7.93457 3.05176C7.74772 2.86035 7.51758 2.76465 7.24414 2.76465C6.97526 2.76465 6.74512 2.86035 6.55371 3.05176C6.3623 3.23861 6.2666 3.47103 6.2666 3.74902C6.2666 4.01335 6.3623 4.24121 6.55371 4.43262C6.74512 4.62402 6.97526 4.71973 7.24414 4.71973Z" fill="#667085"/>
</svg>
