<svg width="13" height="3" viewBox="0 0 13 3" fill="none" xmlns="http://www.w3.org/2000/svg">
<path d="M1.35156 2.18652C1.24219 2.18652 1.14193 2.15918 1.05078 2.10449C0.959635 2.0498 0.88444 1.97689 0.825195 1.88574C0.770508 1.79004 0.743164 1.68522 0.743164 1.57129C0.743164 1.46191 0.770508 1.36165 0.825195 1.27051C0.88444 1.1748 0.959635 1.09961 1.05078 1.04492C1.14193 0.990234 1.24219 0.962891 1.35156 0.962891H11.4141C11.5234 0.962891 11.6237 0.990234 11.7148 1.04492C11.8105 1.09961 11.8857 1.1748 11.9404 1.27051C11.9951 1.36165 12.0225 1.46191 12.0225 1.57129C12.0225 1.68522 11.9951 1.79004 11.9404 1.88574C11.8857 1.97689 11.8105 2.0498 11.7148 2.10449C11.6237 2.15918 11.5234 2.18652 11.4141 2.18652H1.35156Z" fill="white"/>
</svg>
