<svg width="14" height="13" viewBox="0 0 14 13" fill="none" xmlns="http://www.w3.org/2000/svg">
<path d="M2.98535 12.9561C2.24707 12.9561 1.6888 12.7669 1.31055 12.3887C0.932292 12.015 0.743164 11.4635 0.743164 10.7344V2.41504C0.743164 1.68132 0.932292 1.1276 1.31055 0.753906C1.6888 0.380208 2.24707 0.193359 2.98535 0.193359H11.2637C12.002 0.193359 12.5602 0.380208 12.9385 0.753906C13.3167 1.1276 13.5059 1.68132 13.5059 2.41504V10.7344C13.5059 11.4635 13.3167 12.015 12.9385 12.3887C12.5602 12.7669 12.002 12.9561 11.2637 12.9561H2.98535ZM3.06738 11.6094H11.1816C11.4961 11.6094 11.7376 11.5273 11.9062 11.3633C12.0749 11.1992 12.1592 10.9508 12.1592 10.6182V2.52441C12.1592 2.19629 12.0749 1.9502 11.9062 1.78613C11.7376 1.62207 11.4961 1.54004 11.1816 1.54004H3.06738C2.74837 1.54004 2.50456 1.62207 2.33594 1.78613C2.17188 1.9502 2.08984 2.19629 2.08984 2.52441V10.6182C2.08984 10.9508 2.17188 11.1992 2.33594 11.3633C2.50456 11.5273 2.74837 11.6094 3.06738 11.6094ZM5.93164 9.24414C5.80859 9.31706 5.68555 9.34896 5.5625 9.33984C5.44401 9.32617 5.34375 9.2806 5.26172 9.20312C5.17969 9.12109 5.13867 9.014 5.13867 8.88184V4.25391C5.13867 4.12174 5.17969 4.01693 5.26172 3.93945C5.34375 3.86198 5.44629 3.81868 5.56934 3.80957C5.69694 3.7959 5.81771 3.82324 5.93164 3.8916L9.73242 6.14062C9.8418 6.20443 9.91471 6.29329 9.95117 6.40723C9.98763 6.5166 9.98763 6.62826 9.95117 6.74219C9.91927 6.85156 9.84635 6.94043 9.73242 7.00879L5.93164 9.24414Z" fill="white"/>
</svg>
