<svg width="13" height="13" viewBox="0 0 13 13" fill="none" xmlns="http://www.w3.org/2000/svg">
<path d="M0.743164 6.56445C0.743164 6.39583 0.802409 6.25228 0.920898 6.13379C1.04395 6.01074 1.1875 5.94922 1.35156 5.94922H5.77441V1.5332C5.77441 1.36914 5.83366 1.22786 5.95215 1.10938C6.07064 0.986328 6.21419 0.924805 6.38281 0.924805C6.55143 0.924805 6.69499 0.986328 6.81348 1.10938C6.93652 1.22786 6.99805 1.36914 6.99805 1.5332V5.94922H11.4141C11.5781 5.94922 11.7194 6.01074 11.8379 6.13379C11.9609 6.25228 12.0225 6.39583 12.0225 6.56445C12.0225 6.73307 11.9609 6.87663 11.8379 6.99512C11.7194 7.11361 11.5781 7.17285 11.4141 7.17285H6.99805V11.5957C6.99805 11.7598 6.93652 11.901 6.81348 12.0195C6.69499 12.1426 6.55143 12.2041 6.38281 12.2041C6.21419 12.2041 6.07064 12.1426 5.95215 12.0195C5.83366 11.901 5.77441 11.7598 5.77441 11.5957V7.17285H1.35156C1.1875 7.17285 1.04395 7.11361 0.920898 6.99512C0.802409 6.87663 0.743164 6.73307 0.743164 6.56445Z" fill="#17A254"/>
</svg>
