<svg width="21" height="20" viewBox="0 0 21 20" fill="none" xmlns="http://www.w3.org/2000/svg">
<path d="M10.5 0C8.52219 0 6.58879 0.586491 4.9443 1.6853C3.29981 2.78412 2.01808 4.3459 1.26121 6.17316C0.504335 8.00043 0.306298 10.0111 0.692153 11.9509C1.078 13.8907 2.03041 15.6725 3.42894 17.0711C4.82746 18.4696 6.60929 19.422 8.5491 19.8078C10.4889 20.1937 12.4995 19.9956 14.3268 19.2388C16.1541 18.4819 17.7159 17.2002 18.8147 15.5557C19.9135 13.9112 20.5 11.9778 20.5 10C20.5 7.34784 19.4465 4.8043 17.5711 2.92894C15.6957 1.05357 13.1522 0 10.5 0ZM10.5 16.3636C10.2589 16.3636 10.0276 16.2678 9.85718 16.0974C9.68673 15.9269 9.59091 15.6956 9.59091 15.4545C9.59091 15.2135 9.68673 14.9822 9.85718 14.8117C10.0276 14.6413 10.2589 14.5455 10.5 14.5455C10.7411 14.5455 10.9724 14.6413 11.1428 14.8117C11.3133 14.9822 11.4091 15.2135 11.4091 15.4545C11.4091 15.6956 11.3133 15.9269 11.1428 16.0974C10.9724 16.2678 10.7411 16.3636 10.5 16.3636ZM11.8909 10.6364C11.7402 10.7092 11.6142 10.8247 11.5285 10.9685C11.4428 11.1124 11.4014 11.2782 11.4091 11.4455V11.8182C11.4091 12.0593 11.3133 12.2905 11.1428 12.461C10.9724 12.6315 10.7411 12.7273 10.5 12.7273C10.2589 12.7273 10.0276 12.6315 9.85718 12.461C9.68673 12.2905 9.59091 12.0593 9.59091 11.8182V11.4364C9.58064 10.9105 9.72745 10.3935 10.0125 9.95146C10.2975 9.50936 10.7077 9.16227 11.1909 8.95455C11.4956 8.82936 11.7607 8.62373 11.9576 8.35955C12.1545 8.09541 12.276 7.78273 12.309 7.45491C12.3421 7.12709 12.2854 6.79646 12.145 6.49837C12.0047 6.20027 11.786 5.94591 11.5124 5.76246C11.2386 5.57902 10.9203 5.47339 10.5912 5.45686C10.2622 5.44033 9.93482 5.51353 9.64409 5.66863C9.35345 5.82373 9.11036 6.0549 8.94082 6.33744C8.77136 6.61997 8.68182 6.94326 8.68182 7.27273C8.68182 7.51384 8.58605 7.74506 8.41555 7.91556C8.24506 8.08604 8.01384 8.18182 7.77273 8.18182C7.53163 8.18182 7.30039 8.08604 7.12991 7.91556C6.95942 7.74506 6.86364 7.51384 6.86364 7.27273C6.86293 6.73935 6.97956 6.21234 7.20528 5.72906C7.43099 5.24579 7.76026 4.81809 8.16973 4.47628C8.5792 4.13448 9.05882 3.88694 9.57473 3.75122C10.0905 3.61549 10.6299 3.5949 11.1545 3.69091C11.8823 3.82322 12.5524 4.1743 13.0754 4.69733C13.5985 5.22036 13.9495 5.89045 14.0818 6.61818C14.2299 7.4362 14.0933 8.28027 13.6945 9.00973C13.2959 9.73927 12.6594 10.3101 11.8909 10.6273V10.6364Z" fill="#222222"/>
</svg>
