<svg width="17" height="16" viewBox="0 0 17 16" fill="none" xmlns="http://www.w3.org/2000/svg">
<path d="M8.49998 9.62964C10.3979 9.62964 11.9365 8.09106 11.9365 6.19314C11.9365 4.29521 10.3979 2.75664 8.49998 2.75664C6.60205 2.75664 5.06348 4.29521 5.06348 6.19314C5.06348 8.09106 6.60205 9.62964 8.49998 9.62964Z" fill="#222222"/>
<path d="M14.1592 2.34069C11.0383 -0.78023 5.96195 -0.78023 2.84103 2.34069C-0.175476 5.35719 -0.276528 10.1977 2.53618 13.3372C2.63387 13.4467 2.73661 13.5545 2.84103 13.6589C4.40065 15.2202 6.45039 16 8.50012 16C10.5499 16 12.5996 15.2202 14.1592 13.6589C14.2636 13.5545 14.3664 13.4467 14.4641 13.3372C17.2768 10.1977 17.1757 5.35719 14.1592 2.34069ZM13.6388 12.0588C12.4194 10.5767 10.5701 9.63015 8.50012 9.63015C6.43018 9.63015 4.58087 10.5767 3.36146 12.0588C1.33025 9.49204 1.49867 5.7412 3.87011 3.36978C5.14677 2.09311 6.82261 1.45478 8.50012 1.45478C10.1776 1.45478 11.8535 2.09311 13.1301 3.36978C15.5016 5.7412 15.67 9.49204 13.6388 12.0588Z" fill="#222222"/>
</svg>
