<svg width="18" height="18" viewBox="0 0 18 18" fill="none" xmlns="http://www.w3.org/2000/svg">
<g clip-path="url(#clip0_32_959)">
<path fill-rule="evenodd" clip-rule="evenodd" d="M9.00002 0C6.55575 0 6.24927 0.0103595 5.28932 0.0541592C4.33138 0.0978512 3.67712 0.250005 3.10466 0.472504C2.51283 0.702469 2.01092 1.01021 1.51055 1.51055C1.01021 2.01092 0.702469 2.51283 0.472504 3.10466C0.250005 3.67712 0.0978569 4.33137 0.0541649 5.28931C0.0103653 6.24926 0 6.55575 0 9.00002C0 11.4443 0.0103653 11.7507 0.0541649 12.7107C0.0978569 13.6686 0.250005 14.3229 0.472504 14.8953C0.702469 15.4872 1.01021 15.9891 1.51055 16.4895C2.01092 16.9898 2.51283 17.2975 3.10466 17.5275C3.67712 17.75 4.33138 17.9021 5.28932 17.9458C6.24927 17.9896 6.55575 18 9.00002 18C11.4443 18 11.7507 17.9896 12.7107 17.9458C13.6686 17.9021 14.3229 17.75 14.8953 17.5275C15.4872 17.2975 15.9891 16.9898 16.4894 16.4895C16.9898 15.9891 17.2975 15.4872 17.5275 14.8953C17.75 14.3229 17.9022 13.6686 17.9458 12.7107C17.9896 11.7507 18 11.4443 18 9.00002C18 6.55575 17.9896 6.24926 17.9458 5.28931C17.9022 4.33137 17.75 3.67712 17.5275 3.10466C17.2975 2.51283 16.9898 2.01092 16.4894 1.51055C15.9891 1.01021 15.4872 0.702469 14.8953 0.472504C14.3229 0.250005 13.6686 0.0978512 12.7107 0.0541592C11.7507 0.0103595 11.4443 0 9.00002 0ZM9.00002 1.62162C11.4031 1.62162 11.6878 1.6308 12.6368 1.6741C13.5143 1.71411 13.9908 1.86073 14.308 1.98398C14.728 2.14725 15.0279 2.34228 15.3428 2.65723C15.6577 2.97215 15.8527 3.27196 16.016 3.69206C16.1393 4.00919 16.2859 4.48574 16.3259 5.36323C16.3692 6.31224 16.3784 6.5969 16.3784 9.00002C16.3784 11.4031 16.3692 11.6878 16.3259 12.6368C16.2859 13.5143 16.1393 13.9908 16.016 14.3079C15.8527 14.728 15.6577 15.0278 15.3428 15.3428C15.0279 15.6577 14.728 15.8528 14.308 16.016C13.9908 16.1393 13.5143 16.2859 12.6368 16.3259C11.6879 16.3692 11.4033 16.3784 9.00002 16.3784C6.59673 16.3784 6.31213 16.3692 5.36323 16.3259C4.48574 16.2859 4.00919 16.1393 3.69206 16.016C3.27196 15.8528 2.97215 15.6577 2.65723 15.3428C2.34231 15.0278 2.14725 14.728 1.98398 14.3079C1.86073 13.9908 1.71411 13.5143 1.6741 12.6368C1.6308 11.6878 1.62162 11.4031 1.62162 9.00002C1.62162 6.5969 1.6308 6.31224 1.6741 5.36323C1.71411 4.48574 1.86073 4.00919 1.98398 3.69206C2.14725 3.27196 2.34227 2.97215 2.65723 2.65723C2.97215 2.34228 3.27196 2.14725 3.69206 1.98398C4.00919 1.86073 4.48574 1.71411 5.36323 1.6741C6.31224 1.6308 6.59691 1.62162 9.00002 1.62162ZM9.00002 4.37838C6.44754 4.37838 4.37838 6.44753 4.37838 9.00002C4.37838 11.5525 6.44754 13.6216 9.00002 13.6216C11.5525 13.6216 13.6216 11.5525 13.6216 9.00002C13.6216 6.44753 11.5525 4.37838 9.00002 4.37838ZM9.00002 12C7.34314 12 6 10.6569 6 9.00002C6 7.34314 7.34314 6 9.00002 6C10.6569 6 12 7.34314 12 9.00002C12 10.6569 10.6569 12 9.00002 12ZM14.8842 4.19579C14.8842 4.79226 14.4007 5.27577 13.8042 5.27577C13.2078 5.27577 12.7242 4.79226 12.7242 4.19579C12.7242 3.59931 13.2078 3.11577 13.8042 3.11577C14.4007 3.11577 14.8842 3.59931 14.8842 4.19579Z" fill="#17A254"/>
</g>
<defs>
<clipPath id="clip0_32_959">
<rect width="18" height="18" fill="white"/>
</clipPath>
</defs>
</svg>
