<svg width="18" height="18" viewBox="0 0 18 18" fill="none" xmlns="http://www.w3.org/2000/svg">
<circle cx="9" cy="9" r="7.5" fill="white"/>
<path d="M18 8.98778C17.9981 8.06064 17.8552 7.12385 17.5674 6.24115C17.2893 5.38355 16.8857 4.56265 16.3604 3.82674C15.8138 3.05799 15.1669 2.39355 14.4195 1.82182C13.703 1.27133 12.9016 0.846396 12.0537 0.53542C11.1828 0.214787 10.2538 0.0409497 9.32685 0.00618223C8.39407 -0.0285852 7.44776 0.0834433 6.54974 0.338405C5.68069 0.583708 4.8406 0.964219 4.08743 1.46062C3.34197 1.95123 2.66025 2.54807 2.09247 3.23762C1.48799 3.96967 1.01098 4.77126 0.651768 5.64817C0.298353 6.50383 0.0975056 7.41551 0.0260501 8.33878C-0.0473366 9.27751 0.0357062 10.2355 0.257798 11.1492C0.472164 12.0299 0.82751 12.8837 1.2968 13.6563C1.76029 14.4192 2.33773 15.1204 3.00594 15.7114C3.67607 16.3063 4.43118 16.8105 5.25002 17.1794C6.13646 17.5792 7.05572 17.8303 8.01941 17.9443C8.95605 18.0524 9.90622 18.0003 10.8293 17.8129C11.7196 17.6333 12.5868 17.3049 13.3805 16.8645C14.1588 16.4319 14.8811 15.8737 15.4971 15.2285C16.1151 14.5834 16.6443 13.8417 17.0421 13.042C17.4496 12.2231 17.7431 11.3442 17.8822 10.4384C17.9537 9.96706 17.9981 9.49191 18 9.01482C18 9.01095 18 9.00516 18 9.0013C18 8.99743 18 8.99164 18 8.98778ZM14.0333 6.70858C13.9966 6.74721 13.9579 6.78391 13.9212 6.82254C13.4809 7.26292 13.0387 7.70524 12.5984 8.14563C11.9147 8.82746 11.233 9.51122 10.5493 10.195C9.92167 10.8227 9.29402 11.4505 8.66637 12.0782C8.39214 12.3525 8.12563 12.6403 7.8398 12.9049C7.66599 13.0652 7.44197 13.0266 7.28747 12.8701C7.21795 12.8006 7.14842 12.7311 7.0789 12.6615C6.80466 12.3873 6.53043 12.1149 6.25813 11.8406C5.61117 11.1936 4.96613 10.5484 4.31917 9.90139C4.2284 9.81061 4.13764 9.71982 4.04687 9.62904C3.99859 9.58075 3.94258 9.5344 3.90589 9.47645C3.80933 9.32579 3.8383 9.14037 3.9561 9.01289C3.99086 8.97426 4.02949 8.93949 4.06618 8.90279C4.22261 8.74634 4.38097 8.58795 4.5374 8.4315C4.68031 8.28856 4.82516 8.1437 4.96807 8.00077C5.00476 7.96407 5.04145 7.92351 5.08587 7.89453C5.23458 7.79796 5.41997 7.825 5.54937 7.94282C5.75794 8.13404 5.95106 8.34265 6.14998 8.54159C6.62892 9.02061 7.10594 9.49577 7.58295 9.97092C7.60999 9.94774 7.63509 9.92264 7.6602 9.89753L8.09666 9.461C8.53312 9.02448 8.9715 8.58602 9.40796 8.14949C9.90429 7.65309 10.4006 7.15669 10.8969 6.66029C11.287 6.27012 11.6772 5.87995 12.0673 5.48978L12.3859 5.17108C12.4072 5.14984 12.4284 5.12666 12.4496 5.10734C12.5906 4.976 12.7741 4.96634 12.9267 5.06485C12.9267 5.06485 12.9267 5.06485 12.9286 5.06485C12.944 5.07257 12.9595 5.08416 12.9749 5.09962C12.9807 5.10541 12.9865 5.10927 12.9904 5.11507C13.0715 5.19619 13.1526 5.27732 13.2337 5.35844C13.5041 5.62885 13.788 5.89154 14.0468 6.17161C14.1935 6.33386 14.182 6.55405 14.0333 6.70858Z" fill="#17a254"/>
</svg>
